<svg viewBox="0 0 24 24" fill="none" xmlns="http://www.w3.org/2000/svg">
  <path d="M7.5 13.5C6.67 13.5 5.88 13.15 5.3 12.57C4.72 12 4.37 11.21 4.37 10.38C4.37 9.55 4.72 8.76 5.3 8.18L9.2 4.3C9.78 3.72 10.57 3.37 11.4 3.37C12.23 3.37 13.02 3.72 13.6 4.3C14.18 4.88 14.53 5.67 14.53 6.5" stroke="currentColor" stroke-width="1.5" stroke-linecap="round" stroke-linejoin="round"/>
  <path d="M16.5 10.5C17.33 10.5 18.12 10.85 18.7 11.43C19.28 12 19.63 12.79 19.63 13.62C19.63 14.45 19.28 15.24 18.7 15.82L14.8 19.7C14.22 20.28 13.43 20.63 12.6 20.63C11.77 20.63 10.98 20.28 10.4 19.7C9.82 19.12 9.47 18.33 9.47 17.5" stroke="currentColor" stroke-width="1.5" stroke-linecap="round" stroke-linejoin="round"/>
</svg>