<svg viewBox="0 0 24 24" fill="none" xmlns="http://www.w3.org/2000/svg">
  <path d="M18 8C18 6.41 17.37 4.84 16.24 3.76C15.12 2.63 13.56 2 12 2C10.44 2 8.88 2.63 7.76 3.76C6.63 4.84 6 6.41 6 8C6 15 3 17 3 17H21C21 17 18 15 18 8Z" stroke="currentColor" stroke-width="1.5" stroke-linecap="round" stroke-linejoin="round"/>
  <path d="M13.73 21C13.55 21.1 13.28 21.16 12.98 21.19C12.68 21.22 12.34 21.22 12 21.22C11.66 21.22 11.32 21.22 11.02 21.19C10.72 21.16 10.45 21.1 10.27 21" stroke="currentColor" stroke-width="1.5" stroke-linecap="round" stroke-linejoin="round"/>
</svg>